PathFileType	4	(X/Y/Z)	..\data\2014014\dynamic\2014014_C5_04.trc
DataRate	CameraRate	NumFrames	NumMarkers	Units	OrigDataRate	OrigDataStartFrame	OrigNumFrames
100.000000	100.000000	4	52	mm	100.000000	39	157
Frame#	Time	L_IAS			L_IPS			R_IPS			R_IAS			L_FTC			L_FLE			L_FME			L_FAX			L_TTC			L_FAL			L_TAM			L_FCC			L_FM1			L_FM2			L_FM5			R_FTC			R_FLE			R_FME			R_FAX			R_TTC			R_FAL			R_TAM			R_FCC			R_FM1			R_FM2			R_FM5			CV7			TV10			SXS			SJN			L_SIA			L_SRS			L_SAA			L_SAE			L_HLE			L_HME			L_UOA			L_RSP			L_UHE			L_HM2			L_HM5			R_SIA			R_SRS			R_SAA			R_SAE			R_HLE			R_HME			R_UOA			R_RSP			R_UHE			R_HM2			R_HM5			
		X1	Y1	Z1	X2	Y2	Z2	X3	Y3	Z3	X4	Y4	Z4	X5	Y5	Z5	X6	Y6	Z6	X7	Y7	Z7	X8	Y8	Z8	X9	Y9	Z9	X10	Y10	Z10	X11	Y11	Z11	X12	Y12	Z12	X13	Y13	Z13	X14	Y14	Z14	X15	Y15	Z15	X16	Y16	Z16	X17	Y17	Z17	X18	Y18	Z18	X19	Y19	Z19	X20	Y20	Z20	X21	Y21	Z21	X22	Y22	Z22	X23	Y23	Z23	X24	Y24	Z24	X25	Y25	Z25	X26	Y26	Z26	X27	Y27	Z27	X28	Y28	Z28	X29	Y29	Z29	X30	Y30	Z30	X31	Y31	Z31	X32	Y32	Z32	X33	Y33	Z33	X34	Y34	Z34	X35	Y35	Z35	X36	Y36	Z36	X37	Y37	Z37	X38	Y38	Z38	X39	Y39	Z39	X40	Y40	Z40	X41	Y41	Z41	X42	Y42	Z42	X43	Y43	Z43	X44	Y44	Z44	X45	Y45	Z45	X46	Y46	Z46	X47	Y47	Z47	X48	Y48	Z48	X49	Y49	Z49	X50	Y50	Z50	X51	Y51	Z51	X52	Y52	Z52	

40	0.39	-731.6773681640626	998.6163330078127	90.18399047851555	-936.7935791015627	1020.312377929688	182.7616577148437	-934.6331176757815	1013.434936523438	285.5909118652343	-730.0128173828126	994.9168090820315	343.5572204589843	-826.0415649414065	902.306335449219	28.87214279174795	-872.945251464844	498.5532836914064	104.6629028320312	-873.6826782226565	495.2127380371095	242.4570159912109	-899.879333496094	438.7623901367189	105.1075744628905	-831.2512817382815	420.8734741210939	156.2039489746093	-946.1428833007815	67.24243164062501	144.5688934326171	-925.913269042969	99.745964050293	240.5994720458984	-1003.197875976563	23.90657806396485	199.205337524414	-804.6050415039065	21.38681602478028	242.3775787353515	-785.4932861328127	37.17733764648438	185.5473022460937	-836.895202636719	16.65937614440918	123.6044998168945	-779.4809570312502	897.384704589844	409.9002685546875	-632.8362426757814	509.0450439453126	374.4951477050781	-600.1082763671876	520.4642944335939	247.7572021484375	-660.8124389648439	457.210174560547	375.3572387695312	-589.8861694335939	444.3276672363282	331.0238952636719	-760.7210693359376	101.373275756836	329.0569763183593	-711.8635253906251	127.7757873535157	239.0959320068359	-799.1376953125002	76.97799682617189	257.0135803222656	-601.0875854492189	37.03466033935548	259.1026611328125	-610.3388671875001	51.91930007934572	313.6287841796875	-655.4949951171876	36.11760711669923	360.31201171875	-865.9890747070315	1538.9453125	220.5926513671874	-971.9862060546877	1296.771240234375	219.3907318115234	-699.4808959960939	1257.526611328125	229.1750030517578	-743.0285644531251	1442.167724609375	234.2738037109375	-982.2189941406252	1330.485107421875	102.9147796630859	-938.844665527344	1470.9130859375	108.3004913330077	-894.7581176757815	1470.784423828125	48.45330810546866	-845.049499511719	1467.69677734375	25.03177452087393	-811.5838623046877	1136.508178710938	-84.91798400878918	-856.8145141601565	1114.484130859375	-2.493422031402693	-848.5911254882815	1103.328979492188	-62.21069335937512	-633.6951293945314	936.8485107421877	-20.56702423095711	-694.6911621093751	906.2928466796877	-80.78110504150401	-571.2659912109376	873.011657714844	-32.49401473999031	-660.7551269531251	829.7264404296877	-83.07538604736338	-997.5050048828127	1325.63720703125	331.7043151855468	-941.0483398437502	1467.124389648438	341.5341186523437	-907.473327636719	1456.961059570313	410.4133911132812	-862.350524902344	1454.59375	435.1464538574219	-919.7199096679691	1128.296752929688	527.8192749023438	-930.8321533203127	1110.904541015625	425.0982971191406	-958.5312500000003	1109.086791992188	492.0946044921875	-825.2067260742191	876.0850830078127	496.422119140625	-896.5848999023441	879.952575683594	556.1229858398438	-797.3418579101566	784.7527465820315	522.5364990234375	-907.2357177734378	783.7817993164065	557.9188232421875	
41	0.4	-718.2525634765626	996.0288696289065	90.46700286865227	-923.136901855469	1018.151550292969	183.5047607421874	-921.0145263671877	1011.440856933594	286.2417907714843	-716.2006835937501	993.4829101562502	343.8500366210937	-813.4915161132815	900.0735473632815	29.450340270996	-867.3245849609377	497.9052734375001	105.7093963623046	-867.9782714843752	494.5667724609376	243.4509124755859	-894.9901123046877	438.4994506835939	106.1692276000976	-826.563415527344	419.4783630371095	157.0179138183593	-945.8713378906252	67.58408355712892	145.597686767578	-924.9050903320315	99.68109130859378	241.6888580322265	-1002.8056640625	24.18257141113282	200.4484558105468	-804.3596191406252	20.96628189086914	242.6668395996093	-785.2235107421877	36.95564270019532	185.5169830322265	-837.0377197265627	16.78463363647461	123.694709777832	-764.8259887695314	896.1734619140627	410.6050720214844	-618.9195556640626	507.1364746093751	372.2904663085938	-586.6642456054689	519.0760498046876	245.8076477050781	-644.3151245117189	453.9323120117189	373.0392456054688	-572.3150024414064	444.865692138672	330.1720886230469	-718.4202270507814	91.62281799316408	328.2632751464843	-669.4895629882814	121.0778045654297	239.3260803222656	-752.9018554687501	64.09738159179689	255.9272766113281	-553.4535522460939	38.68389511108399	262.2561645507812	-564.7111816406251	53.02024078369142	316.4418640136719	-609.4865722656251	34.20309448242188	362.378662109375	-852.1909790039065	1537.003173828125	221.2074890136718	-958.1704711914065	1294.9482421875	219.1415252685546	-685.6466674804689	1255.512084960938	229.38671875	-729.1170043945314	1440.145874023438	234.9074096679687	-967.967468261719	1328.4951171875	102.2591934204101	-924.6679687500002	1469.476440429688	108.4501037597655	-880.346374511719	1469.420043945313	48.69244003295889	-830.623474121094	1466.463500976563	25.43171501159658	-795.8106689453127	1135.752197265625	-85.74108123779308	-841.1319580078127	1113.08544921875	-3.724342107772931	-832.3239746093752	1101.86328125	-63.48681259155285	-612.9930419921876	941.5662231445315	-18.48041343688973	-672.0348510742189	909.0963134765627	-79.21873474121104	-548.6702270507814	879.5745849609377	-29.36032295227058	-636.0826416015626	833.351257324219	-80.6321334838868	-984.0249633789065	1323.354858398438	330.9709777832031	-927.4444580078127	1464.837036132813	341.6175231933593	-894.1530761718752	1454.438598632813	410.5965881347656	-849.0886840820315	1451.954467773438	435.5072937011719	-907.9712524414066	1125.887084960938	527.8986206054688	-918.7038574218752	1108.386596679688	425.1477661132812	-946.5168457031253	1106.745483398438	492.0778503417969	-813.5012207031253	873.6262817382815	496.9227600097656	-885.0964355468753	877.5616455078127	556.3967895507812	-785.8277587890628	782.2808227539065	523.2646484375	-895.8985595703128	781.469421386719	558.2548217773438	
42	0.41	-704.7050781250001	993.1855468750002	90.90350341796868	-909.3698730468752	1015.747375488281	184.2308959960937	-907.2864379882815	1009.102416992188	286.8782348632812	-702.3622436523439	991.7268676757815	344.3142700195312	-800.7274169921877	897.6921997070315	30.02210998535147	-861.252380371094	497.1302490234376	106.8101501464843	-861.7661743164065	493.8505249023439	244.4479980468749	-889.5945434570315	438.1513671875001	107.2602386474609	-821.4559326171877	417.9792785644532	157.9024505615234	-945.5355224609377	67.97686767578126	146.7628173828124	-923.7667236328127	99.65640258789065	242.9003601074218	-1002.347534179688	24.5542335510254	201.8883666992187	-804.070251464844	20.55340957641602	242.9539947509765	-784.9626464843752	36.76561737060548	185.4754791259765	-837.2097167968752	16.99863243103028	123.8504943847656	-750.3197631835939	894.4497070312502	411.3154296875	-605.8526611328126	504.6660461425782	370.0054016113281	-573.8162841796876	517.0558471679689	243.7727966308594	-628.4995727539064	450.3702087402345	370.7217407226562	-555.5521850585939	445.0893554687501	329.3698120117188	-676.2456054687501	83.28047180175783	327.9609985351562	-627.4387817382814	115.7152557373047	240.041275024414	-706.6506958007814	52.71742630004884	255.426040649414	-506.7137451171877	41.96259689331055	265.8078002929688	-519.9282836914064	55.61355209350587	319.624267578125	-564.1270751953126	33.81852340698243	364.8864440917969	-838.337097167969	1534.8466796875	221.8544006347656	-944.2801513671877	1292.9208984375	218.9711303710937	-671.7094726562501	1253.263427734375	229.7645111083984	-715.1408691406251	1437.88232421875	235.6517944335937	-953.6317138671877	1326.259155273438	101.7255020141601	-910.3605957031252	1467.783813476563	108.6454010009765	-865.7779541015627	1467.787841796875	48.9798698425292	-815.998718261719	1464.935424804688	25.90549850463858	-780.1375732421877	1134.747192382813	-86.56758880615246	-825.6521606445315	1111.408813476563	-4.986203670501811	-816.1863403320315	1100.13134765625	-64.80129241943371	-592.8221435546876	946.007995605469	-16.33497047424324	-649.7205810546876	911.755065917969	-77.6319580078126	-526.6275024414064	885.9787597656252	-26.18098449707038	-611.8656616210939	836.863952636719	-78.14133453369149	-970.4946899414065	1320.786987304688	330.1974182128906	-913.8294067382815	1462.314331054688	341.7342529296874	-880.8468017578127	1451.6796875	410.8296508789062	-835.8460693359377	1449.092895507813	435.9409484863281	-896.0950927734378	1123.206176757813	528.0230102539062	-906.4458618164065	1105.581420898438	425.2488098144531	-934.3483886718753	1104.082763671875	492.0621948242188	-801.4924926757816	870.9534912109377	497.4936218261719	-873.3338012695316	874.909362792969	556.7083740234375	-773.9589233398441	779.622985839844	524.0947265625	-884.2038574218753	778.9072875976565	558.6311645507812	
43	0.42	-691.0195922851564	990.1547851562502	91.45324707031243	-895.4810180664065	1013.149047851563	184.9407196044921	-893.4312744140627	1006.47314453125	287.4943542480468	-688.4672241210939	989.6844482421877	344.9196166992188	-787.7580566406252	895.2012329101565	30.57487678527823	-854.7246704101565	496.254364013672	107.9682922363281	-855.006286621094	493.0877685546876	245.4627532958984	-883.691345214844	437.7510986328126	108.3869171142577	-815.9234619140627	416.413055419922	158.8807525634765	-945.143249511719	68.45538330078126	148.041534423828	-922.5166625976565	99.7173767089844	244.2088623046874	-1001.841125488281	25.06587982177735	203.5051879882812	-803.7196044921877	20.17422485351563	243.2165374755859	-784.6989746093752	36.61748123168946	185.4206237792968	-837.4027099609377	17.30808067321778	124.0701446533202	-735.9654541015626	892.2507934570315	412.0208435058594	-593.4923706054689	501.7403259277345	367.6323852539062	-561.4569091796876	514.5512695312501	241.6277618408203	-613.2665405273439	446.6488647460939	368.4174499511719	-539.5117187500001	445.0648803710939	328.536376953125	-634.6257934570314	76.45925140380861	328.1697387695312	-586.1944580078126	111.7288436889649	241.1936645507812	-660.9505004882814	42.98314666748048	255.5281219482422	-461.3374938964845	46.75653076171876	269.6246337890625	-476.4064331054689	59.63014602661134	323.0596618652344	-519.8312377929689	34.96399688720704	367.75341796875	-824.4243774414065	1532.524658203125	222.5422668457031	-930.3020019531252	1290.730590820313	218.8910217285156	-657.6709594726564	1250.836059570313	230.3030700683593	-701.0996704101564	1435.429443359375	236.5078582763672	-939.2175292968752	1323.854248046875	101.3512954711913	-895.9346923828127	1465.877197265625	108.8968429565429	-851.068298339844	1465.934692382813	49.32812881469717	-801.1926269531252	1463.16162109375	26.46394538879385	-764.5214843750001	1133.55712890625	-87.36474609375011	-810.3511962890627	1109.500610351563	-6.258653163910013	-800.173278808594	1098.184326171875	-66.12572479248058	-573.2045288085939	950.151306152344	-14.14395809173591	-627.8233642578126	914.256042480469	-76.02881622314462	-505.1754150390626	892.1861572265627	-22.97787094116217	-588.1593017578126	840.2507934570315	-75.62545013427743	-956.9020996093752	1317.989013671875	329.4216308593749	-900.1951904296877	1459.606689453125	341.8984680175781	-867.5416259765627	1448.741455078125	411.122314453125	-822.6110839843752	1446.070068359375	436.4533996582031	-884.0767822265628	1120.312255859375	528.1910400390625	-894.0399169921877	1102.553955078125	425.3975830078125	-922.0174560546878	1101.157470703125	492.0457153320312	-789.1726074218753	868.1213989257815	498.1216430664062	-861.2862548828128	872.0490722656252	557.0462646484375	-761.7333984375002	776.8266601562502	524.9971923828125	-872.1473388671878	776.1447753906252	559.0253295898438	
